<svg xmlns:xlink="http://www.w3.org/1999/xlink" width="90" xmlns="http://www.w3.org/2000/svg" height="106" id="screenshot-a47b5460-74aa-808a-8001-b7c76f89bd4d" viewBox="-0 -0 90 106" style="-webkit-print-color-adjust: exact;" fill="none" version="1.1"><g id="shape-a47b5460-74aa-808a-8001-b7c76f89bd4d" width="191" height="184" xmlns:xlink="http://www.w3.org/1999/xlink" rx="0" ry="0" style="fill: rgb(0, 0, 0);"><g id="shape-a47b5460-74aa-808a-8001-b7c76f8a8f6f" rx="0" ry="0" style="fill: rgb(0, 0, 0);"><g id="shape-a47b5460-74aa-808a-8001-b7c76f8b5bf1" rx="0" ry="0" style="fill: rgb(0, 0, 0);"><g id="shape-a47b5460-74aa-808a-8001-b7c76f8c14a3" rx="0" ry="0" style="fill: rgb(0, 0, 0);"><defs><filter x="-0.9790000000000001" y="-0.763" width="2.958" height="3.137" filterUnits="objectBoundingBox" id="6e26605b-ed86-8046-8001-b7c80aa29050-a"><feOffset dy="25" in="SourceAlpha" result="shadowOffsetOuter1"/><feGaussianBlur stdDeviation="25" in="shadowOffsetOuter1" result="shadowBlurOuter1"/><feColorMatrix values="0 0 0 0 0.209139076 0 0 0 0 0.0691446444 0 0 0 0 0.478091033 0 0 0 0.497159091 0" in="shadowBlurOuter1"/></filter></defs><g id="shape-a47b5460-74aa-808a-8001-b7c76f8d64ea"><defs><filter x="-0.9790000000000001" y="-0.763" width="2.958" height="3.137" filterUnits="objectBoundingBox" id="6e26605b-ed86-8046-8001-b7c80aa46538-a"><feOffset dy="25" in="SourceAlpha" result="shadowOffsetOuter1"/><feGaussianBlur stdDeviation="25" in="shadowOffsetOuter1" result="shadowBlurOuter1"/><feColorMatrix values="0 0 0 0 0.209139076 0 0 0 0 0.0691446444 0 0 0 0 0.478091033 0 0 0 0.497159091 0" in="shadowBlurOuter1"/></filter></defs><g id="fills-a47b5460-74aa-808a-8001-b7c76f8d64ea"><path fill-rule="evenodd" filter="url(#6e26605b-ed86-8046-8001-b7c80aa46538-a)" rx="0" ry="0" d="M0,27.995L0,81.934L42.271,106L90,77.939L90,24" style="fill: rgb(0, 0, 0);"/></g></g></g><g id="shape-a47b5460-74aa-808a-8001-b7c76f8de13b" rx="0" ry="0" style="fill: rgb(0, 0, 0);"><g id="shape-a47b5460-74aa-808a-8001-b7c76f8e6c43"><g id="fills-a47b5460-74aa-808a-8001-b7c76f8e6c43"><path fill-rule="evenodd" rx="0" ry="0" d="M0,27.995L0,81.934L42.271,106L90,77.939L90,24" style="fill: rgb(255, 146, 113);"/></g></g></g></g><g id="shape-a47b5460-74aa-808a-8001-b7c76f8ed947"><g id="fills-a47b5460-74aa-808a-8001-b7c76f8ed947"><path fill-rule="nonzero" rx="0" ry="0" d="M42,51.492L42,106L90,77.938L90,24L42,51.492Z" style="fill: rgb(223, 92, 52);"/></g></g><g id="shape-a47b5460-74aa-808a-8001-b7c76f8f7297"><g id="fills-a47b5460-74aa-808a-8001-b7c76f8f7297"><path fill-rule="nonzero" rx="0" ry="0" d="M0,27.865L49.045,0L90,23.862L41.999,51.948L0,27.865Z" style="fill: rgb(244, 123, 86);"/></g></g><g id="shape-a47b5460-74aa-808a-8001-b7c76f915374"><g id="fills-a47b5460-74aa-808a-8001-b7c76f915374"><path fill-rule="nonzero" rx="0" ry="0" d="M43.536,12.06C48.454,11.722,53.365,12.823,57.689,15.232C60.166,16.714,61.518,18.261,61.71,19.874C61.901,21.486,61.084,22.89,59.157,24.075C58.243,24.649,57.237,25.054,56.184,25.271C55.318,25.479,54.43,25.57,53.542,25.544L52.571,25.466C52.662,25.686,52.722,25.918,52.751,26.155C52.72,26.716,52.544,27.259,52.24,27.728C51.734,28.601,51.013,29.323,50.148,29.822C48.131,31.042,45.819,31.663,43.473,31.616C41.046,31.683,38.647,31.066,36.542,29.835C34.551,28.639,33.531,27.234,33.454,25.622C33.469,23.88,34.46,22.299,36.006,21.551C36.733,21.09,37.525,20.743,38.354,20.524C39.016,20.33,39.696,20.212,40.384,20.173L41.086,20.173L39.809,19.393L43.395,17.118L51.704,22.098C52.994,22.805,54.547,22.805,55.838,22.098C57.6,20.979,56.971,19.51,53.95,17.69C50.74,15.891,47.091,15.065,43.434,15.31C39.558,15.358,35.767,16.468,32.458,18.522C29.446,20.438,27.953,22.722,27.979,25.375C27.979,27.975,29.574,30.29,32.675,32.15C36.06,34.076,39.904,35.008,43.779,34.841C47.636,34.906,51.436,33.879,54.754,31.876C55.903,31.183,56.933,30.305,57.805,29.276C58.387,28.646,58.823,27.89,59.08,27.065L59.259,26.246L63.994,26.519C64.002,26.666,64.002,26.813,63.994,26.961C63.907,27.359,63.792,27.75,63.649,28.131C63.444,28.742,63.17,29.327,62.832,29.875C62.346,30.611,61.782,31.291,61.149,31.902C60.314,32.722,59.394,33.446,58.404,34.062C55.555,35.802,52.399,36.96,49.113,37.468C45.533,38.105,41.878,38.17,38.278,37.663C35.005,37.27,31.842,36.218,28.974,34.568C26.658,33.32,24.803,31.339,23.69,28.925C22.77,26.795,22.77,24.37,23.69,22.241C24.793,19.782,26.628,17.739,28.936,16.402C33.333,13.652,38.375,12.152,43.536,12.06ZZM48.181,25.505C48.012,24.602,47.414,23.842,46.586,23.476C45.581,22.874,44.436,22.555,43.269,22.553C42.184,22.511,41.111,22.791,40.179,23.359C39.414,23.739,38.922,24.522,38.903,25.387C39.02,26.29,39.591,27.064,40.409,27.429C41.438,28.027,42.607,28.329,43.791,28.301C44.929,28.33,46.052,28.033,47.032,27.443C47.775,27.096,48.246,26.336,48.181,25.505Z" style="fill: rgb(62, 41, 40);"/></g></g></g></g></svg>